<svg
  viewBox="0 0 373.5483870967742 75.65796344263383"
  preserveAspectRatio="xMidYMid meet"
  id="ggedefbd"
>
  <defs />
  <g
    transform="matrix(2.4708328342429855,0,0,2.4708328342429855,-4,27.999998821815094)"
    fill="#9d11f4"
  >
    <path
      d="M8.5993 4.3242l0 11.759c0.8316,-0.051 1.6982,-0.08 2.5892,-0.0844l-0.0048 -9.8334 -1.9735 -1.0472 -0.0028 -2.5199 3.0405 -2.5983 0 16.0054c0.1301,0.0023 0.2597,0.005 0.3887,0.0083l0 -4.7505 1.9508 -0.9885 0 -4.8609 2.6183 2.2197 -0.0038 3.3968 -1.4942 -0.8446 -0.0482 6.0081c0.6683,0.0642 1.3071,0.1431 1.9096,0.2352l0 -3.8109 1.1148 0.7348 0 3.2696c2.056,0.4026 3.5553,0.9721 4.1633,1.6261 -5.5682,-1.7171 -17.273,-1.7189 -22.8472,0 0.7397,-0.7957 2.7982,-1.4663 5.5741,-1.8632l-0.0153 -10.1017 3.0405 -1.9595z"
      style="fill: #9d11f4"
    />
  </g>
  <g
    transform="matrix(2.3059578384818202,0,0,2.3059578384818202,71.80315798746877,16.53320697097131)"
    fill="#111111"
  >
    <path d="M6.9 5.84 c1.3733 0 2.4566 0.34 3.25 1.02 s1.19 1.66 1.19 2.94 c0 1.24 -0.39334 2.21 -1.18 2.91 s-1.8733 1.05 -3.26 1.05 l-3.16 0 l0 6.24 l-1.92 0 l0 -14.16 l5.08 0 z M6.34 12.08 c1 0 1.7433 -0.18336 2.23 -0.55002 s0.73 -0.94332 0.73 -1.73 c0 -1.52 -0.98666 -2.28 -2.96 -2.28 l-2.6 0 l0 4.56 l2.6 0 z M17.9 10.28 c0.33334 0 0.6 0.04 0.8 0.12 l-0.08 1.94 c-0.34666 -0.09334 -0.64666 -0.14 -0.9 -0.14 c-1.7733 0 -2.6734 0.98666 -2.7 2.96 l0 4.84 l-1.8 0 l0 -9.48 l1.8 0 l0 1.46 l0.04 0 c0.24 -0.50666 0.62666 -0.91666 1.16 -1.23 s1.0933 -0.47 1.68 -0.47 z M24.84 10.28 c1.4 0 2.5866 0.48338 3.56 1.45 s1.4667 2.1434 1.48 3.53 c0 1.4 -0.48666 2.5734 -1.46 3.52 s-2.1666 1.4333 -3.58 1.46 c-1.3867 0 -2.5666 -0.48 -3.54 -1.44 s-1.4733 -2.14 -1.5 -3.54 c0 -1.3733 0.48334 -2.54 1.45 -3.5 s2.1634 -1.4533 3.59 -1.48 z M21.72 15.26 c0 0.97334 0.28664 1.7633 0.85998 2.37 s1.3267 0.91666 2.26 0.93 c0.94666 0 1.7 -0.30334 2.26 -0.91 s0.84666 -1.4033 0.86 -2.39 c0 -0.97334 -0.28 -1.7633 -0.84 -2.37 s-1.3267 -0.91666 -2.3 -0.93 c-0.94666 0 -1.7 0.31334 -2.26 0.94 s-0.84 1.4133 -0.84 2.36 z M37.3 10.28 c1.4 0 2.5434 0.45998 3.43 1.38 s1.3433 2.12 1.37 3.6 c0 1.48 -0.45334 2.6766 -1.36 3.59 s-2.06 1.3767 -3.46 1.39 c-0.69334 0 -1.34 -0.14666 -1.94 -0.44 s-1.0533 -0.68 -1.36 -1.16 l-0.04 0 l0 7 l-1.8 0 l0 -15.12 l1.8 0 l0 1.36 l0.04 0 c0.36 -0.50666 0.83334 -0.9 1.42 -1.18 s1.22 -0.42 1.9 -0.42 z" />
  </g>
</svg>
